<?xml version="1.0" encoding="UTF-8" standalone="no"?>
<!-- Created with Inkscape (http://www.inkscape.org/) -->

<svg
   xmlns:dc="http://purl.org/dc/elements/1.1/"
   xmlns:cc="http://creativecommons.org/ns#"
   xmlns:rdf="http://www.w3.org/1999/02/22-rdf-syntax-ns#"
   xmlns:svg="http://www.w3.org/2000/svg"
   xmlns="http://www.w3.org/2000/svg"
   xmlns:sodipodi="http://sodipodi.sourceforge.net/DTD/sodipodi-0.dtd"
   xmlns:inkscape="http://www.inkscape.org/namespaces/inkscape"
   width="139.26701mm"
   height="126.59551mm"
   viewBox="0 0 139.26702 126.5955"
   version="1.1"
   id="svg8"
   inkscape:version="0.92.4 (5da689c313, 2019-01-14)"
   sodipodi:docname="logo.svg"
   inkscape:export-filename="C:\Users\Yannick\Documents\developpement\sphinx_extensions\source\_static\img\favicon-32x32.png"
   inkscape:export-xdpi="4.4937115"
   inkscape:export-ydpi="4.4937115">
  <defs
     id="defs2" />
  <sodipodi:namedview
     id="base"
     pagecolor="#ffffff"
     bordercolor="#666666"
     borderopacity="1.0"
     inkscape:pageopacity="0.0"
     inkscape:pageshadow="2"
     inkscape:zoom="0.9899495"
     inkscape:cx="264.08435"
     inkscape:cy="267.94568"
     inkscape:document-units="mm"
     inkscape:current-layer="layer1"
     showgrid="false"
     fit-margin-top="0"
     fit-margin-left="0"
     fit-margin-right="0"
     fit-margin-bottom="0"
     inkscape:window-width="1920"
     inkscape:window-height="1001"
     inkscape:window-x="-9"
     inkscape:window-y="-9"
     inkscape:window-maximized="1" />
  <metadata
     id="metadata5">
    <rdf:RDF>
      <cc:Work
         rdf:about="">
        <dc:format>image/svg+xml</dc:format>
        <dc:type
           rdf:resource="http://purl.org/dc/dcmitype/StillImage" />
        <dc:title></dc:title>
      </cc:Work>
    </rdf:RDF>
  </metadata>
  <g
     inkscape:label="Calque 1"
     inkscape:groupmode="layer"
     id="layer1"
     transform="translate(-46.244492,-26.789442)">
    <g
       id="g1015">
      <path
         sodipodi:nodetypes="czzzcczzsccccccc"
         inkscape:connector-curvature="0"
         id="path823"
         d="M 105.04671,139.85307 C 96.212518,138.33542 87.788672,133.52355 78.644781,118.25072 69.500892,102.97788 69.585386,83.793585 77.833248,67.59778 86.081112,51.401973 101.65734,44.068646 115.09744,43.952228 c 13.44013,-0.116418 22.18165,4.218691 30.4769,13.041896 l -10.29837,9.175613 c -4.06192,-4.420229 -9.24271,-8.948662 -20.05142,-8.994095 -10.80869,-0.04544 -20.5033,6.055421 -26.131172,17.229684 -5.627871,11.174263 -5.527244,28.331574 1.691831,37.533284 6.10927,7.78712 7.155929,9.365 16.583791,13.60381 -0.26219,6.97297 -2.32229,14.31065 -2.32229,14.31065 z m 22.72248,-0.19099 c 18.06943,-2.82287 26.20797,-18.42015 29.57509,-34.1514 l -13.18185,0.37438 c -3.33497,9.2284 -8.40882,16.15866 -19.84492,19.78817 0.86137,4.80705 1.85807,10.15811 3.45168,13.98885 z"
         style="fill:#aa00d4;stroke:#8800aa;stroke-width:1.04499996;stroke-linecap:butt;stroke-linejoin:miter;stroke-miterlimit:4;stroke-dasharray:none;stroke-opacity:1" />
      <path
         sodipodi:nodetypes="zcczcccccz"
         inkscape:connector-curvature="0"
         id="path825"
         d="m 109.76389,98.346418 c 2.51556,8.281212 0.90639,33.290422 -4.91369,47.347652 l 22.62542,0.0945 c -5.51986,-14.47985 -8.43593,-40.02991 -6.14211,-47.442142 2.29382,-7.412228 38.10767,-34.673996 38.10767,-34.673996 l 0.17976,-17.064245 -43.7699,39.259065 -19.783699,-18.872926 c -2.863236,3.322194 -5.29512,7.462092 -6.827987,11.26006 0,0 18.008976,11.810818 20.524536,20.092032 z"
         style="fill:#228b22;fill-opacity:1;stroke:#008000;stroke-width:1.14499998;stroke-linecap:butt;stroke-linejoin:miter;stroke-miterlimit:4;stroke-dasharray:none;stroke-opacity:1" />
      <path
         sodipodi:nodetypes="ccccc"
         inkscape:connector-curvature="0"
         id="path827"
         d="m 143.97522,78.430182 c 0.85421,1.88901 1.05191,3.293671 1.15507,5.058244 l 13.2817,-0.392216 c -0.18246,-4.763244 -1.46356,-9.520555 -3.40147,-13.630026 z"
         style="fill:#660088;stroke:#8800aa;stroke-width:0.94;stroke-linecap:butt;stroke-linejoin:miter;stroke-miterlimit:4;stroke-dasharray:none;stroke-opacity:1;fill-opacity:1" />
      <path
         sodipodi:nodetypes="ccccc"
         inkscape:connector-curvature="0"
         id="path829"
         d="m 84.135308,56.014398 -12.054163,-10.54015 0.03722,18.692248 4.020177,3.395149 c 2.761786,-5.632324 3.963581,-7.554273 7.996766,-11.547247 z"
         style="fill:#225500;fill-opacity:1;stroke:#008000;stroke-width:1.14499998;stroke-linecap:butt;stroke-linejoin:miter;stroke-miterlimit:4;stroke-dasharray:none;stroke-opacity:1" />
      <path
         sodipodi:nodetypes="cccc"
         inkscape:connector-curvature="0"
         id="path875"
         d="m 166.86439,33.939113 h 9.57438 V 146.76155 h -9.31562"
         style="fill:none;stroke:#000000;stroke-width:9.64700031;stroke-linecap:round;stroke-linejoin:round;stroke-miterlimit:4;stroke-dasharray:none;stroke-opacity:1" />
      <path
         style="fill:none;stroke:#ff6600;stroke-width:10.06499958;stroke-linecap:round;stroke-linejoin:round;stroke-miterlimit:4;stroke-dasharray:none;stroke-opacity:1"
         d="m 170.59004,31.822445 h 9.88897 V 148.35195 h -9.6217"
         id="path877"
         inkscape:connector-curvature="0"
         sodipodi:nodetypes="cccc" />
      <path
         sodipodi:nodetypes="cccc"
         inkscape:connector-curvature="0"
         id="path913"
         d="m 170.59004,31.822445 h 9.88897 V 148.35195 h -9.6217"
         style="fill:none;stroke:#ff5500;stroke-width:10.06499958;stroke-linecap:round;stroke-linejoin:round;stroke-miterlimit:4;stroke-dasharray:none;stroke-opacity:1" />
      <path
         style="fill:none;stroke:#000000;stroke-width:9.64700031;stroke-linecap:round;stroke-linejoin:round;stroke-miterlimit:4;stroke-dasharray:none;stroke-opacity:1"
         d="M 64.89161,33.939113 H 55.31723 V 146.76155 h 9.31562"
         id="path921"
         inkscape:connector-curvature="0"
         sodipodi:nodetypes="cccc" />
      <path
         sodipodi:nodetypes="cccc"
         inkscape:connector-curvature="0"
         id="path923"
         d="M 61.16596,31.822445 H 51.27699 V 148.35195 h 9.6217"
         style="fill:none;stroke:#ff6600;stroke-width:10.06499958;stroke-linecap:round;stroke-linejoin:round;stroke-miterlimit:4;stroke-dasharray:none;stroke-opacity:1" />
      <path
         style="fill:none;stroke:#ff5500;stroke-width:10.06499958;stroke-linecap:round;stroke-linejoin:round;stroke-miterlimit:4;stroke-dasharray:none;stroke-opacity:1"
         d="M 61.16596,31.822445 H 51.27699 V 148.35195 h 9.6217"
         id="path925"
         inkscape:connector-curvature="0"
         sodipodi:nodetypes="cccc" />
    </g>
  </g>
</svg>
